[Header]
FileType HTR
DataType HTRS
FileVersion 1
NumSegments 64
NumFrames 2
DataFrameRate 30
EulerRotationOrder ZYX
CalibrationUnits mm
RotationUnits Degrees
GlobalAxisofGravity Y
BoneLengthAxis Y
ScaleFactor 1.0
[SegmentNames&Hierarchy]
Hips	GLOBAL
Spine	Hips
Spine1	Spine
Spine2	Spine1
Neck	Spine2
Head	Neck
LeftEye	Head
RightEye	Head
LeftShoulder	Spine2
LeftArm	LeftShoulder
LeftForeArm	LeftArm
LeftHand	LeftForeArm
LeftHandThumb1	LeftHand
LeftHandThumb2	LeftHandThumb1
LeftHandThumb3	LeftHandThumb2
LeftHandThumb4	LeftHandThumb3
LeftHandIndex1	LeftHand
LeftHandIndex2	LeftHandIndex1
LeftHandIndex3	LeftHandIndex2
LeftHandIndex4	LeftHandIndex3
LeftHandMiddle1	LeftHand
LeftHandMiddle2	LeftHandMiddle1
LeftHandMiddle3	LeftHandMiddle2
LeftHandMiddle4	LeftHandMiddle3
LeftHandRing1	LeftHand
LeftHandRing2	LeftHandRing1
LeftHandRing3	LeftHandRing2
LeftHandRing4	LeftHandRing3
LeftHandPinky1	LeftHand
LeftHandPinky2	LeftHandPinky1
LeftHandPinky3	LeftHandPinky2
LeftHandPinky4	LeftHandPinky3
RightShoulder	Spine2
RightArm	RightShoulder
RightForeArm	RightArm
RightHand	RightForeArm
RightHandPinky1	RightHand
RightHandPinky2	RightHandPinky1
RightHandPinky3	RightHandPinky2
RightHandPinky4	RightHandPinky3
RightHandRing1	RightHand
RightHandRing2	RightHandRing1
RightHandRing3	RightHandRing2
RightHandRing4	RightHandRing3
RightHandMiddle1	RightHand
RightHandMiddle2	RightHandMiddle1
RightHandMiddle3	RightHandMiddle2
RightHandMiddle4	RightHandMiddle3
RightHandIndex1	RightHand
RightHandIndex2	RightHandIndex1
RightHandIndex3	RightHandIndex2
RightHandIndex4	RightHandIndex3
RightHandThumb1	RightHand
RightHandThumb2	RightHandThumb1
RightHandThumb3	RightHandThumb2
RightHandThumb4	RightHandThumb3
LeftUpLeg	Hips
LeftLeg	LeftUpLeg
LeftFoot	LeftLeg
LeftToeBase	LeftFoot
RightUpLeg	Hips
RightLeg	RightUpLeg
RightFoot	RightLeg
RightToeBase	RightFoot
[BasePosition]
Hips	0	0	0	0	0	0	1
Spine	0	0	0	0	0	0	1
Spine1	0	0	0	0	0	0	1
Spine2	0	0	0	0	0	0	1
Neck	0	0	0	0	0	0	1
Head	0	0	0	0	0	0	1
LeftEye	0	0	0	0	0	0	1
RightEye	0	0	0	0	0	0	1
LeftShoulder	0	0	0	0	0	0	1
LeftArm	0	0	0	0	0	0	1
LeftForeArm	0	0	0	0	0	0	1
LeftHand	0	0	0	0	0	0	1
LeftHandThumb1	0	0	0	0	0	0	1
LeftHandThumb2	0	0	0	0	0	0	1
LeftHandThumb3	0	0	0	0	0	0	1
LeftHandThumb4	0	0	0	0	0	0	1
LeftHandIndex1	0	0	0	0	0	0	1
LeftHandIndex2	0	0	0	0	0	0	1
LeftHandIndex3	0	0	0	0	0	0	1
LeftHandIndex4	0	0	0	0	0	0	1
LeftHandMiddle1	0	0	0	0	0	0	1
LeftHandMiddle2	0	0	0	0	0	0	1
LeftHandMiddle3	0	0	0	0	0	0	1
LeftHandMiddle4	0	0	0	0	0	0	1
LeftHandRing1	0	0	0	0	0	0	1
LeftHandRing2	0	0	0	0	0	0	1
LeftHandRing3	0	0	0	0	0	0	1
LeftHandRing4	0	0	0	0	0	0	1
LeftHandPinky1	0	0	0	0	0	0	1
LeftHandPinky2	0	0	0	0	0	0	1
LeftHandPinky3	0	0	0	0	0	0	1
LeftHandPinky4	0	0	0	0	0	0	1
RightShoulder	0	0	0	0	0	0	1
RightArm	0	0	0	0	0	0	1
RightForeArm	0	0	0	0	0	0	1
RightHand	0	0	0	0	0	0	1
RightHandPinky1	0	0	0	0	0	0	1
RightHandPinky2	0	0	0	0	0	0	1
RightHandPinky3	0	0	0	0	0	0	1
RightHandPinky4	0	0	0	0	0	0	1
RightHandRing1	0	0	0	0	0	0	1
RightHandRing2	0	0	0	0	0	0	1
RightHandRing3	0	0	0	0	0	0	1
RightHandRing4	0	0	0	0	0	0	1
RightHandMiddle1	0	0	0	0	0	0	1
RightHandMiddle2	0	0	0	0	0	0	1
RightHandMiddle3	0	0	0	0	0	0	1
RightHandMiddle4	0	0	0	0	0	0	1
RightHandIndex1	0	0	0	0	0	0	1
RightHandIndex2	0	0	0	0	0	0	1
RightHandIndex3	0	0	0	0	0	0	1
RightHandIndex4	0	0	0	0	0	0	1
RightHandThumb1	0	0	0	0	0	0	1
RightHandThumb2	0	0	0	0	0	0	1
RightHandThumb3	0	0	0	0	0	0	1
RightHandThumb4	0	0	0	0	0	0	1
LeftUpLeg	0	0	0	0	0	0	1
LeftLeg	0	0	0	0	0	0	1
LeftFoot	0	0	0	0	0	0	1
LeftToeBase	0	0	0	0	0	0	1
RightUpLeg	0	0	0	0	0	0	1
RightLeg	0	0	0	0	0	0	1
RightFoot	0	0	0	0	0	0	1
RightToeBase	0	0	0	0	0	0	1
[Hips]
1	0.9027802944	1023.854248	16.16363144	1.933347702	1.942256808	-0.1656657159	1.0
2	2.227374077	1031.13147	67.37914276	2.545190334	1.361535192	0.0521456264	1.0
[Spine]
1	0	101.8159943	1.315000057	6.175138474	-1.275913119	-0.02117332071	1.0
2	0	101.8159943	1.315000057	5.777997971	-0.2982548773	-0.1864989698	1.0
[Spine1]
1	0	100.8349991	-10.00800037	2.447849989	-2.470368147	1.12680316	1.0
2	0	100.8349991	-10.00800037	2.212779999	-1.868312955	0.5976362824	1.0
[Spine2]
1	0	91	-13.73399925	2.41737318	-2.43031764	1.239522696	1.0
2	0	91	-13.73399925	2.192933083	-1.828854799	0.6934267282	1.0
[Neck]
1	0	166.7169952	-25.16200066	-0.4859343469	2.12710309	-0.2553656995	1.0
2	0	166.7169952	-25.16200066	-0.4565700889	1.881127477	-0.3707230687	1.0
[Head]
1	0	96.17900085	16.84999847	-3.349596024	4.416703224	-2.132272005	1.0
2	0	96.17900085	16.84999847	-2.966842413	3.244333267	-2.018075943	1.0
[LeftEye]
1	30.6760006	64.09500122	92.83599854	0	0	0	1.0
2	30.6760006	64.09500122	92.83599854	0	0	0	1.0
[RightEye]
1	-30.6760006	64.09500122	92.83499908	0	0	0	1.0
2	-30.6760006	64.09500122	92.83499908	0	0	0	1.0
[LeftShoulder]
1	45.70400238	109.4599991	-26.28000069	2.640830755	-8.790821075	-14.61201191	1.0
2	45.70400238	109.4599991	-26.28000069	2.410537481	-7.826480389	-14.3863945	1.0
[LeftArm]
1	105.923996	-5.24600029	-22.32099915	25.50234985	-4.994553566	-60.64110565	1.0
2	105.923996	-5.24600029	-22.32099915	23.68528366	-0.4178301394	-61.55887604	1.0
[LeftForeArm]
1	278.414978	-0.0009999999311	0	3.572779406e-07	-11.06137562	-0.0001976007188	1.0
2	278.414978	-0.0009999999311	0	2.459361895e-06	-11.06337738	-0.000194146487	1.0
[LeftHand]
1	283.2879944	0	0	2.593476534	4.102730274	-10.40044403	1.0
2	283.2879944	0	0	2.405589342	2.948510408	-13.50634098	1.0
[LeftHandThumb1]
1	24.6609993	-15.75	26.8239994	5.839803696	2.504242897	11.148386	1.0
2	24.6609993	-15.75	26.8239994	5.839803696	2.504242897	11.148386	1.0
[LeftHandThumb2]
1	32.29800034	-18.64699936	18.64699936	7.427192211	7.53940773	7.329499245	1.0
2	32.29800034	-18.64699936	18.64699936	6.794822216	7.245201588	7.556600094	1.0
[LeftHandThumb3]
1	26.52600098	-15.31499958	15.31499958	-0.7903316021	-7.547166824	21.28937531	1.0
2	26.52600098	-15.31499958	15.31499958	-0.6806031466	-7.286560535	21.25225258	1.0
[LeftHandThumb4]
1	19.54599953	-11.28499985	11.28499985	0	0	0	1.0
2	19.54599953	-11.28499985	11.28499985	0	0	0	1.0
[LeftHandIndex1]
1	91.09299469	-5.170999527	22.60099792	-0.8678549528	-4.644087791	-17.58436775	1.0
2	91.09299469	-5.170999527	22.60099792	-0.7994109392	-5.23901844	-16.71350288	1.0
[LeftHandIndex2]
1	36.76399994	0	0	-0.2017962039	1.52241075	-15.10009098	1.0
2	36.76399994	0	0	-0.202211678	1.523955822	-15.11588764	1.0
[LeftHandIndex3]
1	28.83100128	0	0	-0.2017871737	1.522386789	-15.10013771	1.0
2	28.83100128	0	0	-0.2022101432	1.523953557	-15.11590958	1.0
[LeftHandIndex4]
1	23.92700005	0	0	0	0	0	1.0
2	23.92700005	0	0	0	0	0	1.0
[LeftHandMiddle1]
1	95.33399963	0	0	-1.623566985	4.193067551	-26.69460297	1.0
2	95.33399963	0	0	-1.569027424	4.002130032	-26.03448486	1.0
[LeftHandMiddle2]
1	36.98199844	0	0	-0.1256256551	1.205272079	-11.90109539	1.0
2	36.98199844	0	0	-0.1258032769	1.206099629	-11.90946102	1.0
[LeftHandMiddle3]
1	29.50900078	0	0	-0.1709470749	1.403122783	-13.89169598	1.0
2	29.50900078	0	0	-0.1711513996	1.403945923	-13.89998627	1.0
[LeftHandMiddle4]
1	28.3390007	0	0	0	0	0	1.0
2	28.3390007	0	0	0	0	0	1.0
[LeftHandRing1]
1	91.04499817	-0.4390000105	-18.65100098	-1.684746742	6.772585869	-27.45467377	1.0
2	91.04499817	-0.4390000105	-18.65100098	-1.608913302	6.737003803	-26.54503059	1.0
[LeftHandRing2]
1	31.54000092	0	0	-0.3293409944	1.933920503	-19.32773399	1.0
2	31.54000092	0	0	-0.3294795752	1.934292555	-19.33174324	1.0
[LeftHandRing3]
1	29.37700081	0	0	-0.3997564316	2.123910189	-21.31640625	1.0
2	29.37700081	0	0	-0.3999027312	2.124294996	-21.32030296	1.0
[LeftHandRing4]
1	26.47500038	0	0	0	0	0	1.0
2	26.47500038	0	0	0	0	0	1.0
[LeftHandPinky1]
1	80.77799988	-4.887000084	-38.06099701	-2.56427598	8.745220184	-34.04150009	1.0
2	80.77799988	-4.887000084	-38.06099701	-2.537654877	8.92203331	-33.56130981	1.0
[LeftHandPinky2]
1	36	0	0	-0.2767349482	1.776889086	-17.7028141	1.0
2	36	0	0	-0.2775772512	1.779542446	-17.73007584	1.0
[LeftHandPinky3]
1	21.14200211	0	0	-0.2767287791	1.776893139	-17.70279694	1.0
2	21.14200211	0	0	-0.2775738537	1.779528379	-17.73007965	1.0
[LeftHandPinky4]
1	19.75699997	0	0	0	0	0	1.0
2	19.75699997	0	0	0	0	0	1.0
[RightShoulder]
1	-45.70000076	109.4620056	-26.28000069	1.654885292	3.830154657	15.7925005	1.0
2	-45.70000076	109.4620056	-26.28000069	1.705841541	4.140942097	15.51743507	1.0
[RightArm]
1	-105.9280014	-5.248000145	-22.32099915	23.98485756	15.96363831	53.51609039	1.0
2	-105.9280014	-5.248000145	-22.32099915	25.04002571	18.17487717	52.19252014	1.0
[RightForeArm]
1	-278.414978	0	0	9.181274436e-06	23.1985569	2.508339821e-05	1.0
2	-278.414978	0	0	2.032689054e-06	26.19678116	-6.446179214e-06	1.0
[RightHand]
1	-283.2879944	0	0.0009999999311	-1.239996076	1.073317051	5.881042004	1.0
2	-283.2879944	0	0.0009999999311	-1.302356601	-1.866262436	8.096364975	1.0
[RightHandPinky1]
1	-80.76699829	-4.885000229	-38.06000137	-1.915680528	-2.856528282	29.38045502	1.0
2	-80.76699829	-4.885000229	-38.06000137	-1.974371552	-2.64770937	29.6568985	1.0
[RightHandPinky2]
1	-36	0	0.0009999999311	-0.565759182	-2.2198596	28.61308479	1.0
2	-36	0	0.0009999999311	-0.5676348209	-2.223280191	28.6613369	1.0
[RightHandPinky3]
1	-21.14200211	0	0	-0.1770878136	-1.269623637	15.88053989	1.0
2	-21.14200211	0	0	-0.1780558825	-1.273043633	15.92447758	1.0
[RightHandPinky4]
1	-19.75699997	0	0	0	0	0	1.0
2	-19.75699997	0	0	0	0	0	1.0
[RightHandRing1]
1	-91.03599548	-0.4390000105	-18.65100098	-1.309586048	-2.233117342	24.38696861	1.0
2	-91.03599548	-0.4390000105	-18.65100098	-1.332520604	-2.103955984	24.71665382	1.0
[RightHandRing2]
1	-31.54000092	0	0	-1.497394204	-3.41129446	47.38855362	1.0
2	-31.54000092	0	0	-1.49999392	-3.413686991	47.43219757	1.0
[RightHandRing3]
1	-29.37700081	0	0	-0.3719275892	-1.81995225	23.09837723	1.0
2	-29.37700081	0	0	-0.373298198	-1.823148727	23.14143181	1.0
[RightHandRing4]
1	-26.47500038	0	0	0	0	0	1.0
2	-26.47500038	0	0	0	0	0	1.0
[RightHandMiddle1]
1	-95.32500458	0	0	-1.153395295	0.1281813383	22.21801758	1.0
2	-95.32500458	0	0	-1.188081264	0.2363669574	22.73505974	1.0
[RightHandMiddle2]
1	-36.98199844	0	0	-0.8532724977	-2.680406809	35.31111145	1.0
2	-36.98199844	0	0	-0.855407238	-2.68341136	35.35664749	1.0
[RightHandMiddle3]
1	-29.50900078	0	0	-0.2944052517	-1.628340125	20.52070045	1.0
2	-29.50900078	0	0	-0.2956902981	-1.631755114	20.56579208	1.0
[RightHandMiddle4]
1	-28.3390007	0	0.0009999999311	0	0	0	1.0
2	-28.3390007	0	0.0009999999311	0	0	0	1.0
[RightHandIndex1]
1	-91.08300018	-5.167999744	22.60099792	-1.018381834	4.672446251	20.65816879	1.0
2	-91.08300018	-5.167999744	22.60099792	-1.04882133	4.707159996	21.12150192	1.0
[RightHandIndex2]
1	-36.76399994	0	0	-0.3926861882	-1.867861152	23.74346924	1.0
2	-36.76399994	0	0	-0.3919528425	-1.866196513	23.72109604	1.0
[RightHandIndex3]
1	-28.83100128	0	0	-0.07741322368	-0.8440698981	10.48040962	1.0
2	-28.83100128	0	0	-0.07708530873	-0.8422733545	10.45807552	1.0
[RightHandIndex4]
1	-23.92700005	0	0	0	0	0	1.0
2	-23.92700005	0	0	0	0	0	1.0
[RightHandThumb1]
1	-24.64799881	-15.72700024	26.82600021	12.78110313	-2.167885065	-4.410644054	1.0
2	-24.64799881	-15.72700024	26.82600021	12.78110313	-2.167885065	-4.410644054	1.0
[RightHandThumb2]
1	-32.29800034	-18.64699936	18.64699936	7.935191631	-18.01410484	-10.16806984	1.0
2	-32.29800034	-18.64699936	18.64699936	7.813863277	-17.83526421	-10.13553238	1.0
[RightHandThumb3]
1	-26.52600098	-15.31399918	15.31399918	-15.49313164	-4.829916	-11.25107288	1.0
2	-26.52600098	-15.31399918	15.31399918	-15.49618626	-4.822702885	-11.25335217	1.0
[RightHandThumb4]
1	-19.54599953	-11.28499985	11.28499985	0	0	0	1.0
2	-19.54599953	-11.28499985	11.28499985	0	0	0	1.0
[LeftUpLeg]
1	82.07800293	-67.51699829	-15.99599934	-28.23791122	10.31993675	-0.05418239161	1.0
2	82.07800293	-67.51699829	-15.99599934	-30.18990707	9.763987541	-1.296903849	1.0
[LeftLeg]
1	0	-443.7049866	2.845999956	57.14549255	-2.066853523	-4.189837933	1.0
2	0	-443.7049866	2.845999956	42.80254745	-0.2669194937	-3.026644707	1.0
[LeftFoot]
1	0	-444.2789917	-29.8219986	0.2165790349	0.06998711079	-1.518284202	1.0
2	0	-444.2789917	-29.8219986	0.1768345386	0.1661524922	-3.103028536	1.0
[LeftToeBase]
1	0	-87.28699493	107.1060028	-8.204113007	4.361876108e-06	-3.611866362e-07	1.0
2	0	-87.28699493	107.1060028	-6.404980183	-1.284439463e-06	5.746922398e-06	1.0
[RightUpLeg]
1	-82.07800293	-67.51699829	-15.99599934	-13.44132328	-6.812338829	3.395167351	1.0
2	-82.07800293	-67.51699829	-15.99599934	-7.604111671	-7.824018478	3.144188881	1.0
[RightLeg]
1	0	-443.7049866	2.861999989	19.71055222	3.859278917	-2.533343315	1.0
2	0	-443.7049866	2.861999989	13.3647356	5.264042377	-3.170158148	1.0
[RightFoot]
1	0	-444.2770081	-29.83799934	-9.456644058	0.03466322646	0.253448844	1.0
2	0	-444.2770081	-29.83799934	-10.41793156	0.06321310252	0.8107941747	1.0
[RightToeBase]
1	0	-87.28699493	107.1060028	-4.97178793	5.493860158e-07	4.252723045e-07	1.0
2	0	-87.28699493	107.1060028	-4.676041603	-1.423777803e-06	1.126770286e-07	1.0
[EndOfFile]
